<svg width="33" height="32" viewBox="0 0 33 32" fill="none" xmlns="http://www.w3.org/2000/svg">
<path d="M22.2714 3.14746C25.6303 3.14746 28.3532 5.84843 28.3532 9.18025C28.3532 12.5003 25.6495 15.1934 22.3071 15.2124H21.712C19.9926 15.2124 18.4472 14.1637 17.8121 12.566L15.384 6.45796C15.2087 6.01688 14.5844 6.01689 14.4091 6.45796L11.9808 12.5664C11.3458 14.1639 9.80071 15.2126 8.08162 15.2129L6.96145 15.213H5.27121C4.11232 15.213 3.17285 14.2736 3.17285 13.1147V7.34418C3.17285 5.02639 5.05179 3.14746 7.36957 3.14746H22.2714Z" fill="#BC9E50"/>
<path d="M22.2714 29.377C25.6303 29.377 28.3532 26.676 28.3532 23.3442C28.3532 20.0241 25.6495 17.331 22.3071 17.312H21.712C19.9926 17.312 18.4472 18.3607 17.8121 19.9585L15.384 26.0665C15.2087 26.5075 14.5844 26.5075 14.4091 26.0665L11.9808 19.958C11.3458 18.3605 9.80071 17.3118 8.08162 17.3116L6.96145 17.3114H5.27121C4.11232 17.3114 3.17285 18.2508 3.17285 19.4097V25.1802C3.17285 27.498 5.05179 29.377 7.36957 29.377H22.2714Z" fill="#BC9E50"/>
<circle cx="14.7136" cy="16" r="2.09836" fill="#F8F4E3"/>
</svg>
