<svg width="432" height="61" viewBox="0 0 432 61" fill="none" xmlns="http://www.w3.org/2000/svg">
<path d="M42.4067 6C48.8095 6 54 11.1487 54 17.5C54 23.8288 48.8462 28.9625 42.4746 28.9988H41.3402C38.0627 28.9988 35.1168 26.9997 33.9061 23.954L29.2776 12.3106C28.9433 11.4698 27.7533 11.4698 27.419 12.3106L22.7902 23.9549C21.5797 27.0001 18.6344 28.9991 15.3573 28.9997L13.222 29V29C9.23341 29 6 25.7666 6 21.778V14C6 9.58172 9.58172 6 14 6H42.4067Z" fill="#BC9E50"/>
<path d="M42.4067 56C48.8095 56 54 50.8513 54 44.5C54 38.1712 48.8462 33.0375 42.4746 33.0012H41.3402C38.0627 33.0012 35.1168 35.0003 33.9061 38.046L29.2776 49.6894C28.9433 50.5302 27.7533 50.5302 27.419 49.6894L22.7902 38.0451C21.5797 34.9999 18.6344 33.0009 15.3573 33.0003L13.222 33V33C9.23341 33 6 36.2334 6 40.222V48C6 52.4183 9.58172 56 14 56H42.4067Z" fill="#BC9E50"/>
<circle cx="28" cy="31" r="4" fill="#2D2D4D"/>
<path d="M421.252 22.124C424.42 22.124 426.98 23.132 428.932 25.148C430.884 27.132 431.86 29.916 431.86 33.5V49.1H425.14V34.412C425.14 32.3 424.612 30.684 423.556 29.564C422.5 28.412 421.06 27.836 419.236 27.836C417.38 27.836 415.908 28.412 414.82 29.564C413.764 30.684 413.236 32.3 413.236 34.412V49.1H406.516V22.508H413.236V25.82C414.132 24.668 415.268 23.772 416.644 23.132C418.052 22.46 419.588 22.124 421.252 22.124Z" fill="#2D2D4D"/>
<path d="M387.714 49.532C385.154 49.532 382.85 48.972 380.802 47.852C378.754 46.7 377.138 45.084 375.954 43.004C374.802 40.924 374.226 38.524 374.226 35.804C374.226 33.084 374.818 30.684 376.002 28.604C377.218 26.524 378.866 24.924 380.946 23.804C383.026 22.652 385.346 22.076 387.906 22.076C390.466 22.076 392.786 22.652 394.866 23.804C396.946 24.924 398.578 26.524 399.762 28.604C400.978 30.684 401.586 33.084 401.586 35.804C401.586 38.524 400.962 40.924 399.714 43.004C398.498 45.084 396.834 46.7 394.722 47.852C392.642 48.972 390.306 49.532 387.714 49.532ZM387.714 43.676C388.93 43.676 390.066 43.388 391.122 42.812C392.21 42.204 393.074 41.308 393.714 40.124C394.354 38.94 394.674 37.5 394.674 35.804C394.674 33.276 394.002 31.34 392.658 29.996C391.346 28.62 389.73 27.932 387.81 27.932C385.89 27.932 384.274 28.62 382.962 29.996C381.682 31.34 381.042 33.276 381.042 35.804C381.042 38.332 381.666 40.284 382.914 41.66C384.194 43.004 385.794 43.676 387.714 43.676Z" fill="#2D2D4D"/>
<path d="M365.955 19.34C364.771 19.34 363.779 18.972 362.979 18.236C362.211 17.468 361.827 16.524 361.827 15.404C361.827 14.284 362.211 13.356 362.979 12.62C363.779 11.852 364.771 11.468 365.955 11.468C367.139 11.468 368.115 11.852 368.883 12.62C369.683 13.356 370.083 14.284 370.083 15.404C370.083 16.524 369.683 17.468 368.883 18.236C368.115 18.972 367.139 19.34 365.955 19.34ZM369.267 22.508V49.1H362.547V22.508H369.267Z" fill="#2D2D4D"/>
<path d="M355.917 22.508V49.1H349.149V45.74C348.285 46.892 347.148 47.804 345.74 48.476C344.364 49.116 342.861 49.436 341.229 49.436C339.149 49.436 337.309 49.004 335.709 48.14C334.109 47.244 332.845 45.948 331.917 44.252C331.021 42.524 330.573 40.476 330.573 38.108V22.508H337.293V37.148C337.293 39.26 337.821 40.892 338.877 42.044C339.933 43.164 341.373 43.724 343.197 43.724C345.053 43.724 346.508 43.164 347.564 42.044C348.62 40.892 349.149 39.26 349.149 37.148V22.508H355.917Z" fill="#2D2D4D"/>
<path d="M320.027 28.028V40.892C320.027 41.788 320.235 42.444 320.651 42.86C321.099 43.244 321.835 43.436 322.859 43.436H325.979V49.1H321.755C316.091 49.1 313.259 46.348 313.259 40.844V28.028H310.091V22.508H313.259V15.932H320.027V22.508H325.979V28.028H320.027Z" fill="#2D2D4D"/>
<path d="M302.252 19.34C301.068 19.34 300.076 18.972 299.276 18.236C298.508 17.468 298.124 16.524 298.124 15.404C298.124 14.284 298.508 13.356 299.276 12.62C300.076 11.852 301.068 11.468 302.252 11.468C303.436 11.468 304.412 11.852 305.18 12.62C305.98 13.356 306.38 14.284 306.38 15.404C306.38 16.524 305.98 17.468 305.18 18.236C304.412 18.972 303.436 19.34 302.252 19.34ZM305.564 22.508V49.1H298.844V22.508H305.564Z" fill="#2D2D4D"/>
<path d="M288.058 28.028V40.892C288.058 41.788 288.266 42.444 288.682 42.86C289.13 43.244 289.866 43.436 290.89 43.436H294.01V49.1H289.786C284.122 49.1 281.29 46.348 281.29 40.844V28.028H278.122V22.508H281.29V15.932H288.058V22.508H294.01V28.028H288.058Z" fill="#2D2D4D"/>
<path d="M264.254 49.532C262.078 49.532 260.126 49.148 258.398 48.38C256.67 47.58 255.294 46.508 254.27 45.164C253.278 43.82 252.734 42.332 252.638 40.7H259.406C259.534 41.724 260.03 42.572 260.894 43.244C261.79 43.916 262.894 44.252 264.206 44.252C265.486 44.252 266.478 43.996 267.182 43.484C267.918 42.972 268.286 42.316 268.286 41.516C268.286 40.652 267.838 40.012 266.942 39.596C266.078 39.148 264.686 38.668 262.766 38.156C260.782 37.676 259.15 37.18 257.87 36.668C256.622 36.156 255.534 35.372 254.606 34.316C253.71 33.26 253.262 31.836 253.262 30.044C253.262 28.572 253.678 27.228 254.51 26.012C255.374 24.796 256.59 23.836 258.158 23.132C259.758 22.428 261.63 22.076 263.774 22.076C266.942 22.076 269.47 22.876 271.358 24.476C273.246 26.044 274.286 28.172 274.478 30.86H268.046C267.95 29.804 267.502 28.972 266.702 28.364C265.934 27.724 264.894 27.404 263.582 27.404C262.366 27.404 261.422 27.628 260.75 28.076C260.11 28.524 259.79 29.148 259.79 29.948C259.79 30.844 260.238 31.532 261.134 32.012C262.03 32.46 263.422 32.924 265.31 33.404C267.23 33.884 268.814 34.38 270.062 34.892C271.31 35.404 272.382 36.204 273.278 37.292C274.206 38.348 274.686 39.756 274.718 41.516C274.718 43.052 274.286 44.428 273.422 45.644C272.59 46.86 271.374 47.82 269.774 48.524C268.206 49.196 266.366 49.532 264.254 49.532Z" fill="#2D2D4D"/>
<path d="M237.08 22.124C240.248 22.124 242.808 23.132 244.76 25.148C246.712 27.132 247.688 29.916 247.688 33.5V49.1H240.968V34.412C240.968 32.3 240.44 30.684 239.384 29.564C238.328 28.412 236.888 27.836 235.064 27.836C233.208 27.836 231.736 28.412 230.648 29.564C229.592 30.684 229.064 32.3 229.064 34.412V49.1H222.344V22.508H229.064V25.82C229.96 24.668 231.096 23.772 232.472 23.132C233.88 22.46 235.416 22.124 237.08 22.124Z" fill="#2D2D4D"/>
<path d="M212.392 19.34C211.208 19.34 210.216 18.972 209.416 18.236C208.648 17.468 208.264 16.524 208.264 15.404C208.264 14.284 208.648 13.356 209.416 12.62C210.216 11.852 211.208 11.468 212.392 11.468C213.576 11.468 214.552 11.852 215.32 12.62C216.12 13.356 216.52 14.284 216.52 15.404C216.52 16.524 216.12 17.468 215.32 18.236C214.552 18.972 213.576 19.34 212.392 19.34ZM215.704 22.508V49.1H208.984V22.508H215.704Z" fill="#2D2D4D"/>
<path d="M190.183 49.532C187.623 49.532 185.319 48.972 183.271 47.852C181.223 46.7 179.607 45.084 178.423 43.004C177.271 40.924 176.695 38.524 176.695 35.804C176.695 33.084 177.287 30.684 178.471 28.604C179.687 26.524 181.335 24.924 183.415 23.804C185.495 22.652 187.815 22.076 190.375 22.076C192.935 22.076 195.255 22.652 197.335 23.804C199.415 24.924 201.047 26.524 202.231 28.604C203.447 30.684 204.055 33.084 204.055 35.804C204.055 38.524 203.431 40.924 202.183 43.004C200.967 45.084 199.303 46.7 197.191 47.852C195.111 48.972 192.775 49.532 190.183 49.532ZM190.183 43.676C191.399 43.676 192.535 43.388 193.591 42.812C194.679 42.204 195.543 41.308 196.183 40.124C196.823 38.94 197.143 37.5 197.143 35.804C197.143 33.276 196.471 31.34 195.127 29.996C193.815 28.62 192.199 27.932 190.279 27.932C188.359 27.932 186.743 28.62 185.431 29.996C184.151 31.34 183.511 33.276 183.511 35.804C183.511 38.332 184.135 40.284 185.383 41.66C186.663 43.004 188.263 43.676 190.183 43.676Z" fill="#2D2D4D"/>
<path d="M147.772 35.804C147.772 33.052 148.332 30.652 149.452 28.604C150.572 26.524 152.124 24.924 154.108 23.804C156.092 22.652 158.364 22.076 160.924 22.076C164.22 22.076 166.94 22.908 169.084 24.572C171.26 26.204 172.716 28.508 173.452 31.484H166.204C165.82 30.332 165.164 29.436 164.236 28.796C163.34 28.124 162.22 27.788 160.876 27.788C158.956 27.788 157.436 28.492 156.316 29.9C155.196 31.276 154.636 33.244 154.636 35.804C154.636 38.332 155.196 40.3 156.316 41.708C157.436 43.084 158.956 43.772 160.876 43.772C163.596 43.772 165.372 42.556 166.204 40.124H173.452C172.716 43.004 171.26 45.292 169.084 46.988C166.908 48.684 164.188 49.532 160.924 49.532C158.364 49.532 156.092 48.972 154.108 47.852C152.124 46.7 150.572 45.1 149.452 43.052C148.332 40.972 147.772 38.556 147.772 35.804Z" fill="#2D2D4D"/>
<path d="M138.715 28.028V40.892C138.715 41.788 138.923 42.444 139.339 42.86C139.787 43.244 140.523 43.436 141.547 43.436H144.667V49.1H140.443C134.779 49.1 131.947 46.348 131.947 40.844V28.028H128.779V22.508H131.947V15.932H138.715V22.508H144.667V28.028H138.715Z" fill="#2D2D4D"/>
<path d="M120.939 19.34C119.755 19.34 118.763 18.972 117.963 18.236C117.195 17.468 116.811 16.524 116.811 15.404C116.811 14.284 117.195 13.356 117.963 12.62C118.763 11.852 119.755 11.468 120.939 11.468C122.123 11.468 123.099 11.852 123.867 12.62C124.667 13.356 125.067 14.284 125.067 15.404C125.067 16.524 124.667 17.468 123.867 18.236C123.099 18.972 122.123 19.34 120.939 19.34ZM124.251 22.508V49.1H117.531V22.508H124.251Z" fill="#2D2D4D"/>
<path d="M91.72 26.396C92.584 25.116 93.768 24.076 95.272 23.276C96.808 22.476 98.552 22.076 100.504 22.076C102.776 22.076 104.824 22.636 106.648 23.756C108.504 24.876 109.96 26.476 111.016 28.556C112.104 30.604 112.648 32.988 112.648 35.708C112.648 38.428 112.104 40.844 111.016 42.956C109.96 45.036 108.504 46.652 106.648 47.804C104.824 48.956 102.776 49.532 100.504 49.532C98.52 49.532 96.776 49.148 95.272 48.38C93.8 47.58 92.616 46.556 91.72 45.308V49.1H85V13.58H91.72V26.396ZM105.784 35.708C105.784 34.108 105.448 32.732 104.776 31.58C104.136 30.396 103.272 29.5 102.184 28.892C101.128 28.284 99.976 27.98 98.728 27.98C97.512 27.98 96.36 28.3 95.272 28.94C94.216 29.548 93.352 30.444 92.68 31.628C92.04 32.812 91.72 34.204 91.72 35.804C91.72 37.404 92.04 38.796 92.68 39.98C93.352 41.164 94.216 42.076 95.272 42.716C96.36 43.324 97.512 43.628 98.728 43.628C99.976 43.628 101.128 43.308 102.184 42.668C103.272 42.028 104.136 41.116 104.776 39.932C105.448 38.748 105.784 37.34 105.784 35.708Z" fill="#2D2D4D"/>
</svg>
