<svg width="32" height="33" viewBox="0 0 32 33" fill="none" xmlns="http://www.w3.org/2000/svg">
<path d="M22.246 3.72461C25.6049 3.72461 28.3278 6.42558 28.3278 9.7574C28.3278 13.0774 25.6241 15.7705 22.2817 15.7895H21.6866C19.9673 15.7895 18.4218 14.7408 17.7867 13.1431L15.3586 7.03511C15.1833 6.59403 14.559 6.59404 14.3837 7.03511L11.9554 13.1436C11.3204 14.7411 9.77532 15.7897 8.05623 15.79L6.93606 15.7902C4.84368 15.7902 3.14746 14.094 3.14746 12.0016V7.92133C3.14746 5.60354 5.0264 3.72461 7.34418 3.72461H22.246Z" fill="#BC9E50"/>
<path d="M22.246 29.9551C25.6049 29.9551 28.3278 27.2541 28.3278 23.9223C28.3278 20.6023 25.6241 17.9092 22.2817 17.8901H21.6866C19.9673 17.8901 18.4218 18.9389 17.7867 20.5366L15.3586 26.6446C15.1833 27.0857 14.559 27.0857 14.3837 26.6446L11.9554 20.5361C11.3204 18.9386 9.77532 17.89 8.05623 17.8897L6.93606 17.8895C4.84368 17.8895 3.14746 19.5857 3.14746 21.6781V25.7584C3.14746 28.0761 5.0264 29.9551 7.34418 29.9551H22.246Z" fill="#BC9E50"/>
<circle cx="14.6882" cy="16.5769" r="2.09836" fill="#2D2D4D"/>
</svg>
